<svg width="328" height="180" viewBox="0 0 328 180" fill="none" xmlns="http://www.w3.org/2000/svg" xmlns:xlink="http://www.w3.org/1999/xlink">
<g clip-path="url(#clip0_442_16057)">
<rect width="328" height="180" rx="8" fill="white"/>
<rect width="328" height="180" fill="url(#pattern0_442_16057)"/>
<rect width="328" height="180" fill="url(#paint0_linear_442_16057)" fill-opacity="0.36"/>
<path d="M26.752 144.572V146.857H19.3301V144.572H26.752ZM20.1992 138.781V153H17.2695V138.781H20.1992ZM28.8418 138.781V153H25.9219V138.781H28.8418ZM30.7656 147.824V147.619C30.7656 146.844 30.8763 146.132 31.0977 145.48C31.319 144.823 31.6413 144.253 32.0645 143.771C32.4876 143.29 33.0085 142.915 33.627 142.648C34.2454 142.375 34.9551 142.238 35.7559 142.238C36.5566 142.238 37.2695 142.375 37.8945 142.648C38.5195 142.915 39.0436 143.29 39.4668 143.771C39.8965 144.253 40.222 144.823 40.4434 145.48C40.6647 146.132 40.7754 146.844 40.7754 147.619V147.824C40.7754 148.592 40.6647 149.305 40.4434 149.963C40.222 150.614 39.8965 151.184 39.4668 151.672C39.0436 152.154 38.5228 152.528 37.9043 152.795C37.2858 153.062 36.5762 153.195 35.7754 153.195C34.9746 153.195 34.2617 153.062 33.6367 152.795C33.0182 152.528 32.4941 152.154 32.0645 151.672C31.6413 151.184 31.319 150.614 31.0977 149.963C30.8763 149.305 30.7656 148.592 30.7656 147.824ZM33.5781 147.619V147.824C33.5781 148.267 33.6172 148.68 33.6953 149.064C33.7734 149.449 33.8971 149.787 34.0664 150.08C34.2422 150.367 34.4701 150.591 34.75 150.754C35.0299 150.917 35.3717 150.998 35.7754 150.998C36.166 150.998 36.5013 150.917 36.7812 150.754C37.0612 150.591 37.2858 150.367 37.4551 150.08C37.6243 149.787 37.748 149.449 37.8262 149.064C37.9108 148.68 37.9531 148.267 37.9531 147.824V147.619C37.9531 147.189 37.9108 146.786 37.8262 146.408C37.748 146.024 37.6211 145.686 37.4453 145.393C37.276 145.093 37.0514 144.859 36.7715 144.689C36.4915 144.52 36.153 144.436 35.7559 144.436C35.3587 144.436 35.0202 144.52 34.7402 144.689C34.4668 144.859 34.2422 145.093 34.0664 145.393C33.8971 145.686 33.7734 146.024 33.6953 146.408C33.6172 146.786 33.5781 147.189 33.5781 147.619ZM47.7676 148.586H44.457L44.4375 146.74H47.1719C47.5365 146.74 47.8327 146.704 48.0605 146.633C48.2884 146.555 48.4544 146.441 48.5586 146.291C48.6693 146.135 48.7246 145.946 48.7246 145.725C48.7246 145.529 48.6888 145.363 48.6172 145.227C48.5521 145.083 48.4512 144.966 48.3145 144.875C48.1777 144.784 48.0052 144.719 47.7969 144.68C47.5951 144.634 47.3574 144.611 47.084 144.611H45.502V153H42.6895V142.434H47.084C47.7741 142.434 48.3926 142.495 48.9395 142.619C49.4863 142.736 49.9518 142.915 50.3359 143.156C50.7266 143.397 51.0228 143.703 51.2246 144.074C51.4329 144.439 51.5371 144.872 51.5371 145.373C51.5371 145.699 51.4622 146.005 51.3125 146.291C51.1693 146.577 50.9544 146.831 50.668 147.053C50.3815 147.274 50.0267 147.456 49.6035 147.6C49.1868 147.736 48.7051 147.821 48.1582 147.854L47.7676 148.586ZM47.7676 153H43.7637L44.7305 150.822H47.7676C48.1126 150.822 48.3958 150.78 48.6172 150.695C48.8385 150.611 49.0013 150.487 49.1055 150.324C49.2161 150.155 49.2715 149.953 49.2715 149.719C49.2715 149.491 49.2227 149.292 49.125 149.123C49.0273 148.954 48.8678 148.824 48.6465 148.732C48.4316 148.635 48.1387 148.586 47.7676 148.586H45.1406L45.1602 146.74H48.1484L48.832 147.482C49.5742 147.528 50.1862 147.668 50.668 147.902C51.1497 148.137 51.5046 148.436 51.7324 148.801C51.9668 149.159 52.084 149.553 52.084 149.982C52.084 150.484 51.9896 150.923 51.8008 151.301C51.612 151.678 51.332 151.994 50.9609 152.248C50.5964 152.495 50.1471 152.684 49.6133 152.814C49.0794 152.938 48.4642 153 47.7676 153ZM55.7559 145.568H58.8223C59.7858 145.568 60.6061 145.728 61.2832 146.047C61.9668 146.359 62.4876 146.796 62.8457 147.355C63.2103 147.915 63.3926 148.563 63.3926 149.299C63.3926 149.833 63.2884 150.327 63.0801 150.783C62.8783 151.232 62.582 151.623 62.1914 151.955C61.8008 152.287 61.3223 152.544 60.7559 152.727C60.1895 152.909 59.5449 153 58.8223 153H53.998V142.434H56.8203V150.812H58.8223C59.2454 150.812 59.584 150.744 59.8379 150.607C60.0983 150.464 60.2871 150.279 60.4043 150.051C60.528 149.823 60.5898 149.576 60.5898 149.309C60.5898 149.029 60.528 148.775 60.4043 148.547C60.2871 148.312 60.0983 148.124 59.8379 147.98C59.584 147.837 59.2454 147.766 58.8223 147.766H55.7559V145.568ZM67.9043 142.434V153H65.0918V142.434H67.9043ZM73.1777 149.074L76.7227 142.434H79.5352V153H76.7227V146.35L73.1777 153H70.3652V142.434H73.1777V149.074ZM76.4004 138.186H78.4023C78.4023 138.745 78.2624 139.243 77.9824 139.68C77.709 140.109 77.3184 140.448 76.8105 140.695C76.3027 140.936 75.7038 141.057 75.0137 141.057C73.9655 141.057 73.1354 140.79 72.5234 140.256C71.918 139.722 71.6152 139.032 71.6152 138.186H73.6074C73.6074 138.524 73.7116 138.827 73.9199 139.094C74.1348 139.361 74.4993 139.494 75.0137 139.494C75.5215 139.494 75.8796 139.361 76.0879 139.094C76.2962 138.827 76.4004 138.524 76.4004 138.186ZM89.6816 142.434V153H86.8691V142.434H89.6816ZM96.5469 142.434L91.9961 149.045H89.1836L88.8418 146.447H90.707L92.9824 142.434H96.5469ZM93.1094 153L90.5117 148.537L92.9629 147.18L96.8789 153H93.1094ZM101.068 151.809L103.871 142.434H106.889L102.641 154.592C102.549 154.859 102.426 155.145 102.27 155.451C102.12 155.757 101.915 156.047 101.654 156.32C101.4 156.6 101.078 156.828 100.688 157.004C100.303 157.18 99.8314 157.268 99.2715 157.268C99.0046 157.268 98.7865 157.251 98.6172 157.219C98.4479 157.186 98.2461 157.141 98.0117 157.082V155.021C98.0833 155.021 98.1582 155.021 98.2363 155.021C98.3145 155.028 98.3893 155.031 98.4609 155.031C98.832 155.031 99.1348 154.989 99.3691 154.904C99.6035 154.82 99.7923 154.689 99.9355 154.514C100.079 154.344 100.193 154.123 100.277 153.85L101.068 151.809ZM99.8965 142.434L102.191 150.09L102.592 153.068L100.678 153.273L96.8789 142.434H99.8965ZM110.824 144.465V157.062H108.012V142.434H110.619L110.824 144.465ZM117.514 147.6V147.805C117.514 148.573 117.423 149.286 117.24 149.943C117.064 150.601 116.804 151.174 116.459 151.662C116.114 152.144 115.684 152.521 115.17 152.795C114.662 153.062 114.076 153.195 113.412 153.195C112.768 153.195 112.208 153.065 111.732 152.805C111.257 152.544 110.857 152.18 110.531 151.711C110.212 151.236 109.955 150.686 109.76 150.061C109.564 149.436 109.415 148.765 109.311 148.049V147.512C109.415 146.743 109.564 146.04 109.76 145.402C109.955 144.758 110.212 144.201 110.531 143.732C110.857 143.257 111.254 142.889 111.723 142.629C112.198 142.368 112.755 142.238 113.393 142.238C114.063 142.238 114.652 142.365 115.16 142.619C115.674 142.873 116.104 143.238 116.449 143.713C116.801 144.188 117.064 144.755 117.24 145.412C117.423 146.07 117.514 146.799 117.514 147.6ZM114.691 147.805V147.6C114.691 147.15 114.652 146.737 114.574 146.359C114.503 145.975 114.385 145.64 114.223 145.354C114.066 145.067 113.858 144.846 113.598 144.689C113.344 144.527 113.035 144.445 112.67 144.445C112.286 144.445 111.957 144.507 111.684 144.631C111.417 144.755 111.199 144.934 111.029 145.168C110.86 145.402 110.733 145.682 110.648 146.008C110.564 146.333 110.512 146.701 110.492 147.111V148.469C110.525 148.951 110.616 149.383 110.766 149.768C110.915 150.145 111.146 150.445 111.459 150.666C111.771 150.887 112.182 150.998 112.689 150.998C113.061 150.998 113.373 150.917 113.627 150.754C113.881 150.585 114.086 150.354 114.242 150.061C114.405 149.768 114.519 149.429 114.584 149.045C114.656 148.661 114.691 148.247 114.691 147.805ZM123.627 150.998C123.972 150.998 124.278 150.933 124.545 150.803C124.812 150.666 125.02 150.477 125.17 150.236C125.326 149.989 125.408 149.699 125.414 149.367H128.061C128.054 150.109 127.855 150.77 127.465 151.35C127.074 151.923 126.55 152.375 125.893 152.707C125.235 153.033 124.499 153.195 123.686 153.195C122.865 153.195 122.149 153.059 121.537 152.785C120.932 152.512 120.427 152.134 120.023 151.652C119.62 151.164 119.317 150.598 119.115 149.953C118.913 149.302 118.812 148.605 118.812 147.863V147.58C118.812 146.831 118.913 146.135 119.115 145.49C119.317 144.839 119.62 144.273 120.023 143.791C120.427 143.303 120.932 142.922 121.537 142.648C122.143 142.375 122.852 142.238 123.666 142.238C124.532 142.238 125.29 142.404 125.941 142.736C126.599 143.068 127.113 143.544 127.484 144.162C127.862 144.774 128.054 145.5 128.061 146.34H125.414C125.408 145.988 125.333 145.669 125.189 145.383C125.053 145.096 124.851 144.868 124.584 144.699C124.324 144.523 124.001 144.436 123.617 144.436C123.207 144.436 122.872 144.523 122.611 144.699C122.351 144.868 122.149 145.103 122.006 145.402C121.863 145.695 121.762 146.031 121.703 146.408C121.651 146.779 121.625 147.17 121.625 147.58V147.863C121.625 148.273 121.651 148.667 121.703 149.045C121.755 149.423 121.853 149.758 121.996 150.051C122.146 150.344 122.351 150.575 122.611 150.744C122.872 150.913 123.21 150.998 123.627 150.998ZM141.781 142.434V144.641H136.664V142.434H141.781ZM137.475 142.434V153H134.662V142.434H137.475ZM143.832 142.434V153H141.01V142.434H143.832ZM145.551 147.824V147.619C145.551 146.844 145.661 146.132 145.883 145.48C146.104 144.823 146.426 144.253 146.85 143.771C147.273 143.29 147.794 142.915 148.412 142.648C149.031 142.375 149.74 142.238 150.541 142.238C151.342 142.238 152.055 142.375 152.68 142.648C153.305 142.915 153.829 143.29 154.252 143.771C154.682 144.253 155.007 144.823 155.229 145.48C155.45 146.132 155.561 146.844 155.561 147.619V147.824C155.561 148.592 155.45 149.305 155.229 149.963C155.007 150.614 154.682 151.184 154.252 151.672C153.829 152.154 153.308 152.528 152.689 152.795C152.071 153.062 151.361 153.195 150.561 153.195C149.76 153.195 149.047 153.062 148.422 152.795C147.803 152.528 147.279 152.154 146.85 151.672C146.426 151.184 146.104 150.614 145.883 149.963C145.661 149.305 145.551 148.592 145.551 147.824ZM148.363 147.619V147.824C148.363 148.267 148.402 148.68 148.48 149.064C148.559 149.449 148.682 149.787 148.852 150.08C149.027 150.367 149.255 150.591 149.535 150.754C149.815 150.917 150.157 150.998 150.561 150.998C150.951 150.998 151.286 150.917 151.566 150.754C151.846 150.591 152.071 150.367 152.24 150.08C152.41 149.787 152.533 149.449 152.611 149.064C152.696 148.68 152.738 148.267 152.738 147.824V147.619C152.738 147.189 152.696 146.786 152.611 146.408C152.533 146.024 152.406 145.686 152.23 145.393C152.061 145.093 151.837 144.859 151.557 144.689C151.277 144.52 150.938 144.436 150.541 144.436C150.144 144.436 149.805 144.52 149.525 144.689C149.252 144.859 149.027 145.093 148.852 145.393C148.682 145.686 148.559 146.024 148.48 146.408C148.402 146.786 148.363 147.189 148.363 147.619ZM167.973 150.617V145.91C167.973 145.572 167.917 145.282 167.807 145.041C167.696 144.794 167.523 144.602 167.289 144.465C167.061 144.328 166.765 144.26 166.4 144.26C166.088 144.26 165.818 144.315 165.59 144.426C165.362 144.53 165.186 144.683 165.062 144.885C164.939 145.08 164.877 145.311 164.877 145.578H162.064C162.064 145.129 162.169 144.702 162.377 144.299C162.585 143.895 162.888 143.54 163.285 143.234C163.682 142.922 164.154 142.678 164.701 142.502C165.255 142.326 165.873 142.238 166.557 142.238C167.377 142.238 168.106 142.375 168.744 142.648C169.382 142.922 169.883 143.332 170.248 143.879C170.619 144.426 170.805 145.109 170.805 145.93V150.451C170.805 151.031 170.84 151.506 170.912 151.877C170.984 152.242 171.088 152.561 171.225 152.834V153H168.383C168.246 152.714 168.142 152.355 168.07 151.926C168.005 151.49 167.973 151.053 167.973 150.617ZM168.344 146.564L168.363 148.156H166.791C166.42 148.156 166.098 148.199 165.824 148.283C165.551 148.368 165.326 148.488 165.15 148.645C164.975 148.794 164.844 148.97 164.76 149.172C164.682 149.374 164.643 149.595 164.643 149.836C164.643 150.077 164.698 150.295 164.809 150.49C164.919 150.679 165.079 150.829 165.287 150.939C165.495 151.044 165.74 151.096 166.02 151.096C166.443 151.096 166.811 151.011 167.123 150.842C167.436 150.673 167.676 150.464 167.846 150.217C168.021 149.969 168.113 149.735 168.119 149.514L168.861 150.705C168.757 150.972 168.614 151.249 168.432 151.535C168.256 151.822 168.031 152.092 167.758 152.346C167.484 152.593 167.156 152.798 166.771 152.961C166.387 153.117 165.932 153.195 165.404 153.195C164.734 153.195 164.125 153.062 163.578 152.795C163.038 152.521 162.608 152.147 162.289 151.672C161.977 151.19 161.82 150.643 161.82 150.031C161.82 149.478 161.924 148.986 162.133 148.557C162.341 148.127 162.647 147.766 163.051 147.473C163.461 147.173 163.972 146.949 164.584 146.799C165.196 146.643 165.906 146.564 166.713 146.564H168.344ZM180.209 146.701V148.889H174.838V146.701H180.209ZM175.775 142.434V153H172.963V142.434H175.775ZM182.113 142.434V153H179.291V142.434H182.113ZM190.004 150.617V145.91C190.004 145.572 189.949 145.282 189.838 145.041C189.727 144.794 189.555 144.602 189.32 144.465C189.092 144.328 188.796 144.26 188.432 144.26C188.119 144.26 187.849 144.315 187.621 144.426C187.393 144.53 187.217 144.683 187.094 144.885C186.97 145.08 186.908 145.311 186.908 145.578H184.096C184.096 145.129 184.2 144.702 184.408 144.299C184.617 143.895 184.919 143.54 185.316 143.234C185.714 142.922 186.186 142.678 186.732 142.502C187.286 142.326 187.904 142.238 188.588 142.238C189.408 142.238 190.137 142.375 190.775 142.648C191.413 142.922 191.915 143.332 192.279 143.879C192.65 144.426 192.836 145.109 192.836 145.93V150.451C192.836 151.031 192.872 151.506 192.943 151.877C193.015 152.242 193.119 152.561 193.256 152.834V153H190.414C190.277 152.714 190.173 152.355 190.102 151.926C190.036 151.49 190.004 151.053 190.004 150.617ZM190.375 146.564L190.395 148.156H188.822C188.451 148.156 188.129 148.199 187.855 148.283C187.582 148.368 187.357 148.488 187.182 148.645C187.006 148.794 186.876 148.97 186.791 149.172C186.713 149.374 186.674 149.595 186.674 149.836C186.674 150.077 186.729 150.295 186.84 150.49C186.951 150.679 187.11 150.829 187.318 150.939C187.527 151.044 187.771 151.096 188.051 151.096C188.474 151.096 188.842 151.011 189.154 150.842C189.467 150.673 189.708 150.464 189.877 150.217C190.053 149.969 190.144 149.735 190.15 149.514L190.893 150.705C190.788 150.972 190.645 151.249 190.463 151.535C190.287 151.822 190.062 152.092 189.789 152.346C189.516 152.593 189.187 152.798 188.803 152.961C188.419 153.117 187.963 153.195 187.436 153.195C186.765 153.195 186.156 153.062 185.609 152.795C185.069 152.521 184.639 152.147 184.32 151.672C184.008 151.19 183.852 150.643 183.852 150.031C183.852 149.478 183.956 148.986 184.164 148.557C184.372 148.127 184.678 147.766 185.082 147.473C185.492 147.173 186.003 146.949 186.615 146.799C187.227 146.643 187.937 146.564 188.744 146.564H190.375ZM200.229 142.434V153H197.406V142.434H200.229ZM203.627 142.434V144.611H194.057V142.434H203.627ZM204.281 147.824V147.619C204.281 146.844 204.392 146.132 204.613 145.48C204.835 144.823 205.157 144.253 205.58 143.771C206.003 143.29 206.524 142.915 207.143 142.648C207.761 142.375 208.471 142.238 209.271 142.238C210.072 142.238 210.785 142.375 211.41 142.648C212.035 142.915 212.559 143.29 212.982 143.771C213.412 144.253 213.738 144.823 213.959 145.48C214.18 146.132 214.291 146.844 214.291 147.619V147.824C214.291 148.592 214.18 149.305 213.959 149.963C213.738 150.614 213.412 151.184 212.982 151.672C212.559 152.154 212.038 152.528 211.42 152.795C210.801 153.062 210.092 153.195 209.291 153.195C208.49 153.195 207.777 153.062 207.152 152.795C206.534 152.528 206.01 152.154 205.58 151.672C205.157 151.184 204.835 150.614 204.613 149.963C204.392 149.305 204.281 148.592 204.281 147.824ZM207.094 147.619V147.824C207.094 148.267 207.133 148.68 207.211 149.064C207.289 149.449 207.413 149.787 207.582 150.08C207.758 150.367 207.986 150.591 208.266 150.754C208.546 150.917 208.887 150.998 209.291 150.998C209.682 150.998 210.017 150.917 210.297 150.754C210.577 150.591 210.801 150.367 210.971 150.08C211.14 149.787 211.264 149.449 211.342 149.064C211.426 148.68 211.469 148.267 211.469 147.824V147.619C211.469 147.189 211.426 146.786 211.342 146.408C211.264 146.024 211.137 145.686 210.961 145.393C210.792 145.093 210.567 144.859 210.287 144.689C210.007 144.52 209.669 144.436 209.271 144.436C208.874 144.436 208.536 144.52 208.256 144.689C207.982 144.859 207.758 145.093 207.582 145.393C207.413 145.686 207.289 146.024 207.211 146.408C207.133 146.786 207.094 147.189 207.094 147.619ZM222.445 149.768L225.219 142.434H227.514L223.393 153H221.498L217.396 142.434H219.691L222.445 149.768ZM219.018 142.434V153H216.205V142.434H219.018ZM225.941 153V142.434H228.754V153H225.941ZM234.018 149.074L237.562 142.434H240.375V153H237.562V146.35L234.018 153H231.205V142.434H234.018V149.074ZM245.346 149.074L248.891 142.434H251.703V153H248.891V146.35L245.346 153H242.533V142.434H245.346V149.074Z" fill="white"/>
</g>
<defs>
<pattern id="pattern0_442_16057" patternContentUnits="objectBoundingBox" width="1" height="1">
<use xlink:href="#image0_442_16057" transform="matrix(0.001 0 0 0.00182222 0 -0.104978)"/>
</pattern>
<linearGradient id="paint0_linear_442_16057" x1="164" y1="0" x2="164" y2="180" gradientUnits="userSpaceOnUse">
<stop stop-opacity="0"/>
<stop offset="1"/>
</linearGradient>
<clipPath id="clip0_442_16057">
<rect width="328" height="180" rx="8" fill="white"/>
</clipPath>

</defs>
</svg>
