<svg width="154" height="44" viewBox="0 0 154 44" fill="none" xmlns="http://www.w3.org/2000/svg">
<path d="M137.122 30.3376L132.598 18.2805H136.026L138.731 26.8161L138.895 27.5157L139.058 26.8161L141.74 18.2805H145.121L140.597 30.3376H137.122Z" fill="#1780C2"/>
<path d="M125.495 30.6407C124.399 30.6407 123.376 30.3958 122.428 29.9061C121.479 29.4086 120.71 28.6895 120.119 27.7489C119.536 26.8005 119.245 25.6499 119.245 24.2973C119.245 23.2012 119.439 22.2567 119.828 21.4638C120.224 20.6631 120.737 20.0062 121.367 19.4931C121.996 18.9801 122.673 18.5991 123.396 18.3504C124.126 18.1016 124.826 17.9772 125.495 17.9772C126.731 17.9772 127.815 18.2454 128.748 18.7818C129.689 19.3182 130.423 20.0645 130.952 21.0207C131.48 21.9691 131.745 23.0613 131.745 24.2973C131.745 25.2846 131.566 26.1708 131.208 26.9559C130.851 27.7411 130.373 28.4096 129.774 28.9616C129.175 29.5057 128.503 29.9216 127.757 30.2093C127.018 30.4969 126.264 30.6407 125.495 30.6407ZM125.495 28.2619C126.101 28.2619 126.61 28.0831 127.022 27.7255C127.434 27.368 127.745 26.8899 127.955 26.2913C128.165 25.6927 128.27 25.028 128.27 24.2973C128.27 23.5743 128.165 22.9136 127.955 22.315C127.745 21.7164 127.434 21.2422 127.022 20.8924C126.61 20.5348 126.101 20.356 125.495 20.356C124.888 20.356 124.375 20.5348 123.955 20.8924C123.543 21.2422 123.229 21.7164 123.011 22.315C122.801 22.9136 122.696 23.5743 122.696 24.2973C122.696 25.4634 122.949 26.4157 123.454 27.1542C123.967 27.8927 124.647 28.2619 125.495 28.2619Z" fill="#1780C2"/>
<path d="M108.105 30.3376V28.9616L113.446 20.8458L113.796 20.4493L113.306 20.5193H108.735V18.2805H117.504V19.6564L112.21 27.7256L111.86 28.1221L112.373 28.0521H117.551V30.3376H108.105Z" fill="#1780C2"/>
<path d="M102.502 30.3376V18.2804H105.767V30.3376H102.502ZM104.135 16.6946C103.598 16.6946 103.143 16.5119 102.77 16.1465C102.405 15.7734 102.222 15.3186 102.222 14.7822C102.222 14.2303 102.405 13.7678 102.77 13.3946C103.143 13.0137 103.598 12.8232 104.135 12.8232C104.671 12.8232 105.122 13.0137 105.487 13.3946C105.86 13.7678 106.047 14.2303 106.047 14.7822C106.047 15.3186 105.86 15.7734 105.487 16.1465C105.122 16.5119 104.671 16.6946 104.135 16.6946Z" fill="#1780C2"/>
<path d="M90.5234 30.3376V28.9616L95.864 20.8458L96.2138 20.4493L95.7241 20.5193H91.1531V18.2805H99.9219V19.6564L94.628 27.7256L94.2782 28.1221L94.7912 28.0521H99.9686V30.3376H90.5234Z" fill="#1780C2"/>
<path d="M73.6929 30.3376L79.7797 13.383H83.0447L89.1316 30.3376H85.68L81.4822 17.7208L81.2956 16.8579L81.0857 17.7674L79.1034 23.8076L78.8236 24.2741L79.1734 24.2274H80.9458C81.3967 24.2274 81.7737 24.3557 82.0769 24.6122C82.3878 24.8687 82.6366 25.1836 82.8232 25.5567C83.0175 25.9299 83.1691 26.2875 83.2779 26.6295H78.2172L76.9812 30.3376H73.6929Z" fill="#1780C2"/>
<path d="M59.4328 30.3375V21.2189C59.4328 20.7835 59.4056 20.321 59.3512 19.8313C59.2968 19.3415 59.1996 18.8246 59.0597 18.2804H61.5318C61.6639 18.3815 61.8038 18.5952 61.9515 18.9217C62.0992 19.2482 62.2003 19.6097 62.2547 20.0062L62.3014 20.5659L62.5346 20.0062C62.8533 19.3843 63.2614 18.9023 63.7589 18.5603C64.2642 18.2182 64.7656 18.0472 65.2632 18.0472C65.5119 18.0472 65.7568 18.0705 65.9978 18.1171C66.2388 18.1638 66.4992 18.2338 66.779 18.327L66.4059 20.9623C66.095 20.8691 65.8345 20.8069 65.6246 20.7758C65.4147 20.7447 65.2165 20.7291 65.0299 20.7291C64.5013 20.7291 64.0466 20.904 63.6657 21.2539C63.2847 21.5959 62.9932 22.0662 62.7911 22.6648C62.589 23.2634 62.4879 23.9475 62.4879 24.7171V30.3375H59.4328Z" fill="#1780C2"/>
<path d="M49.8013 30.6408C49.055 30.6408 48.4098 30.4776 47.8657 30.1511C47.3293 29.8168 46.9134 29.3815 46.618 28.8451C46.3303 28.3087 46.1865 27.7334 46.1865 27.1193C46.1865 26.4741 46.377 25.8638 46.7579 25.2886C47.1388 24.7133 47.7918 24.2275 48.7169 23.831C49.6497 23.4268 50.9363 23.1625 52.5766 23.0381C52.5221 23.4034 52.4328 23.7416 52.3084 24.0525C52.184 24.3557 52.013 24.6084 51.7953 24.8105C51.5854 25.0126 51.3172 25.1448 50.9907 25.207C50.602 25.2691 50.2833 25.378 50.0345 25.5335C49.7858 25.6889 49.6031 25.8794 49.4865 26.1048C49.3699 26.3225 49.3116 26.5596 49.3116 26.8161C49.3116 27.2204 49.4554 27.5585 49.743 27.8306C50.0307 28.1027 50.3766 28.2387 50.7808 28.2387C51.2239 28.2387 51.6709 28.0871 52.1218 27.784C52.5805 27.473 53.0119 27.0804 53.4161 26.6062V23.0847C53.4161 22.2762 53.1907 21.631 52.7398 21.149C52.2967 20.6671 51.667 20.4261 50.8508 20.4261C50.4699 20.4261 50.0579 20.465 49.6148 20.5427C49.1717 20.6204 48.6741 20.7604 48.1222 20.9625L47.3293 18.9102C48.0211 18.5915 48.7324 18.366 49.4632 18.2339C50.2017 18.094 50.843 18.024 51.3872 18.024C53.043 18.024 54.3179 18.4593 55.2119 19.33C56.1136 20.2006 56.5645 21.4522 56.5645 23.0847V27.3992C56.5645 27.8267 56.5917 28.2854 56.6461 28.7751C56.7006 29.2649 56.7977 29.7857 56.9376 30.3376H54.5356C54.3257 30.221 54.1508 30.0578 54.0108 29.8479C53.8787 29.6302 53.766 29.4048 53.6727 29.1716L53.6027 28.7051L53.3228 29.1016C52.6232 29.7391 52.0091 30.155 51.4805 30.3493C50.9596 30.5436 50.3999 30.6408 49.8013 30.6408Z" fill="#1780C2"/>
<path d="M40.2003 30.3375V21.7786C40.2003 21.3899 40.1147 21.0712 39.9437 20.8224C39.7727 20.5737 39.4695 20.4493 39.0342 20.4493C38.8943 20.4493 38.7427 20.4687 38.5794 20.5076C38.4162 20.5465 38.2335 20.5737 38.0314 20.5892C37.6582 20.6125 37.3201 20.4571 37.0169 20.1228C36.7215 19.7808 36.4688 19.3998 36.259 18.9801C37.1141 18.6302 37.837 18.3776 38.4278 18.2221C39.0186 18.0589 39.5861 17.9772 40.1303 17.9772C40.6667 17.9772 41.1875 18.1133 41.6928 18.3854C42.2059 18.6574 42.6257 19.0733 42.9522 19.633C43.2787 20.185 43.4419 20.8846 43.4419 21.732V30.3375H40.2003ZM25.3213 30.3375V21.2189C25.3213 20.7836 25.294 20.321 25.2396 19.8313C25.193 19.3415 25.1036 18.8246 24.9714 18.2804H27.6767C28.0498 18.7002 28.2947 19.1161 28.4113 19.5281C28.5279 19.9401 28.5862 20.3793 28.5862 20.8458V30.3375H25.3213ZM32.7608 30.3375V21.7786C32.7608 21.3899 32.6869 21.0712 32.5392 20.8224C32.3993 20.5737 32.1311 20.4493 31.7346 20.4493C31.5947 20.4493 31.4548 20.4648 31.3148 20.4959C31.1749 20.527 31.0117 20.5504 30.8251 20.5659C30.4519 20.5892 30.1216 20.4337 29.8339 20.0995C29.5541 19.7574 29.3092 19.3765 29.0993 18.9567C29.9389 18.6147 30.6424 18.3659 31.2099 18.2104C31.7774 18.055 32.3332 17.9772 32.8774 17.9772C33.4138 17.9772 33.919 18.1133 34.3932 18.3854C34.8752 18.6574 35.2678 19.0733 35.571 19.633C35.8742 20.185 36.0257 20.8846 36.0257 21.732V30.3375H32.7608Z" fill="#1780C2"/>
<path d="M15.3499 30.6641C13.9584 30.6641 12.7534 30.4037 11.7351 29.8828C10.7245 29.3542 9.9432 28.5846 9.39126 27.574C8.83932 26.5634 8.56335 25.3235 8.56335 23.8543V13.383H11.8517V24.2041C11.8517 25.4712 12.182 26.4663 12.8428 27.1892C13.5114 27.9044 14.347 28.262 15.3499 28.262C16.3449 28.262 17.1767 27.9044 17.8452 27.1892C18.5138 26.4663 18.8481 25.4712 18.8481 24.2041V13.383H22.113V23.8543C22.113 25.2302 21.8371 26.4313 21.2851 27.4574C20.741 28.4758 19.9636 29.2648 18.953 29.8245C17.9424 30.3842 16.7414 30.6641 15.3499 30.6641Z" fill="#1780C2"/>
</svg>
