<svg width="220" height="133" viewBox="0 0 220 133" fill="none" xmlns="http://www.w3.org/2000/svg">
<path d="M152.965 57.3925V39.3179C152.965 38.455 152.912 37.5382 152.804 36.5675C152.697 35.5967 152.505 34.572 152.229 33.4934H157.109C157.37 33.6937 157.646 34.1175 157.938 34.7646C158.23 35.4118 158.429 36.1283 158.537 36.9142L158.629 38.0236L159.089 36.9142C159.718 35.6814 160.524 34.7261 161.507 34.0481C162.504 33.3701 163.494 33.0311 164.476 33.0311C164.968 33.0311 165.451 33.0774 165.927 33.1698C166.403 33.2623 166.917 33.4009 167.469 33.5858L166.733 38.8094C166.119 38.6245 165.604 38.5013 165.19 38.4396C164.776 38.378 164.384 38.3472 164.016 38.3472C162.972 38.3472 162.074 38.6939 161.322 39.3873C160.57 40.0653 159.995 40.9975 159.596 42.184C159.197 43.3705 158.997 44.7264 158.997 46.2519V57.3925H152.965Z" fill="white"/>
<path d="M133.949 57.9937C132.476 57.9937 131.202 57.6701 130.127 57.0229C129.068 56.3603 128.247 55.4974 127.664 54.4342C127.096 53.371 126.812 52.2307 126.812 51.0135C126.812 49.7345 127.188 48.5249 127.94 47.3847C128.692 46.2444 129.982 45.2814 131.808 44.4955C133.65 43.6943 136.19 43.1704 139.428 42.9238C139.321 43.648 139.145 44.3183 138.899 44.9347C138.653 45.5356 138.316 46.0364 137.886 46.437C137.472 46.8377 136.942 47.0996 136.297 47.2229C135.53 47.3461 134.901 47.5619 134.41 47.87C133.918 48.1782 133.558 48.5557 133.328 49.0026C133.097 49.434 132.982 49.904 132.982 50.4125C132.982 51.2138 133.266 51.8841 133.834 52.4234C134.402 52.9627 135.085 53.2323 135.883 53.2323C136.758 53.2323 137.64 52.9319 138.531 52.3309C139.436 51.7146 140.288 50.9364 141.086 49.9965V43.0163C141.086 41.4137 140.641 40.1348 139.751 39.1795C138.876 38.2241 137.633 37.7464 136.021 37.7464C135.269 37.7464 134.456 37.8235 133.581 37.9776C132.706 38.1317 131.724 38.409 130.634 38.8096L129.068 34.7417C130.434 34.11 131.839 33.6631 133.282 33.4011C134.74 33.1238 136.006 32.9851 137.08 32.9851C140.349 32.9851 142.866 33.848 144.632 35.5738C146.412 37.2996 147.302 39.7804 147.302 43.0163V51.5682C147.302 52.4157 147.356 53.3248 147.463 54.2955C147.571 55.2663 147.763 56.2987 148.039 57.3927H143.296C142.882 57.1616 142.537 56.838 142.26 56.422C141.999 55.9905 141.777 55.5437 141.593 55.0814L141.454 54.1569L140.902 54.9427C139.521 56.2062 138.308 57.0306 137.264 57.4158C136.236 57.801 135.131 57.9937 133.949 57.9937Z" fill="white"/>
<path d="M114.993 57.3925V40.4274C114.993 39.6569 114.825 39.0252 114.487 38.5321C114.149 38.039 113.551 37.7925 112.691 37.7925C112.415 37.7925 112.116 37.831 111.793 37.908C111.471 37.9851 111.11 38.039 110.711 38.0698C109.975 38.1161 109.307 37.8079 108.708 37.1453C108.125 36.4673 107.626 35.7123 107.212 34.8802C108.9 34.1868 110.328 33.686 111.494 33.3778C112.66 33.0542 113.781 32.8925 114.855 32.8925C115.914 32.8925 116.943 33.1621 117.94 33.7014C118.953 34.2407 119.782 35.0651 120.427 36.1745C121.071 37.2686 121.394 38.6554 121.394 40.3349V57.3925H114.993ZM85.6169 57.3925V39.3179C85.6169 38.455 85.5632 37.5382 85.4558 36.5675C85.3637 35.5967 85.1872 34.572 84.9263 33.4934H90.2674C91.0042 34.3255 91.4876 35.1499 91.7179 35.9665C91.9481 36.7832 92.0632 37.6538 92.0632 38.5783V57.3925H85.6169ZM100.305 57.3925V40.4274C100.305 39.6569 100.159 39.0252 99.8678 38.5321C99.5915 38.039 99.062 37.7925 98.2792 37.7925C98.0029 37.7925 97.7267 37.8233 97.4504 37.8849C97.1741 37.9466 96.8518 37.9928 96.4835 38.0236C95.7468 38.0698 95.0945 37.7617 94.5266 37.0991C93.974 36.4211 93.4906 35.666 93.0762 34.834C94.7338 34.156 96.1228 33.6629 97.2432 33.3547C98.3636 33.0465 99.461 32.8925 100.535 32.8925C101.594 32.8925 102.592 33.1621 103.528 33.7014C104.48 34.2407 105.255 35.0651 105.854 36.1745C106.452 37.2686 106.751 38.6554 106.751 40.3349V57.3925H100.305Z" fill="white"/>
<path d="M65.9298 58.0397C63.1824 58.0397 60.8034 57.5236 58.7928 56.4912C56.7976 55.4434 55.2551 53.9179 54.1653 51.9147C53.0756 49.9116 52.5308 47.4539 52.5308 44.5416V23.7859H59.0231V45.235C59.0231 47.7466 59.6754 49.719 60.98 51.152C62.2999 52.5696 63.9498 53.2784 65.9298 53.2784C67.8943 53.2784 69.5366 52.5696 70.8565 51.152C72.1765 49.719 72.8364 47.7466 72.8364 45.235V23.7859H79.2827V44.5416C79.2827 47.269 78.7378 49.6496 77.6481 51.6836C76.5737 53.7022 75.0389 55.2662 73.0436 56.3756C71.0484 57.485 68.6771 58.0397 65.9298 58.0397Z" fill="white"/>
<path d="M164.72 108.613L155.787 84.7141H162.555L167.897 101.633L168.219 103.02L168.541 101.633L173.836 84.7141H180.513L171.58 108.613H164.72Z" fill="white"/>
<path d="M141.762 109.214C139.598 109.214 137.58 108.729 135.707 107.758C133.835 106.772 132.316 105.346 131.149 103.482C129.998 101.602 129.422 99.3216 129.422 96.6405C129.422 94.4678 129.806 92.5957 130.573 91.024C131.356 89.4369 132.369 88.1348 133.612 87.1178C134.856 86.1008 136.191 85.3458 137.618 84.8527C139.061 84.3596 140.442 84.1131 141.762 84.1131C144.203 84.1131 146.344 84.6447 148.186 85.7079C150.043 86.7711 151.493 88.2504 152.537 90.1457C153.58 92.0255 154.102 94.1905 154.102 96.6405C154.102 98.5974 153.749 100.354 153.043 101.91C152.337 103.467 151.393 104.792 150.212 105.886C149.03 106.964 147.702 107.789 146.229 108.359C144.771 108.929 143.282 109.214 141.762 109.214ZM141.762 104.499C142.959 104.499 143.965 104.145 144.778 103.436C145.592 102.727 146.206 101.779 146.62 100.593C147.034 99.4064 147.242 98.0889 147.242 96.6405C147.242 95.2075 147.034 93.8977 146.62 92.7112C146.206 91.5248 145.592 90.5848 144.778 89.8914C143.965 89.1826 142.959 88.8282 141.762 88.8282C140.565 88.8282 139.552 89.1826 138.723 89.8914C137.91 90.5848 137.288 91.5248 136.859 92.7112C136.444 93.8977 136.237 95.2075 136.237 96.6405C136.237 98.9518 136.736 100.839 137.733 102.303C138.746 103.767 140.089 104.499 141.762 104.499Z" fill="white"/>
<path d="M107.43 108.613V105.886L117.974 89.799L118.665 89.0131L117.698 89.1518H108.673V84.7141H125.986V87.4414L115.534 103.436L114.843 104.222L115.856 104.083H126.078V108.613H107.43Z" fill="white"/>
<path d="M96.3665 108.613V84.714H102.813V108.613H96.3665ZM99.5896 81.5706C98.5306 81.5706 97.6327 81.2085 96.896 80.4843C96.1746 79.7447 95.814 78.8433 95.814 77.7801C95.814 76.686 96.1746 75.7692 96.896 75.0296C97.6327 74.2746 98.5306 73.897 99.5896 73.897C100.649 73.897 101.539 74.2746 102.26 75.0296C102.997 75.7692 103.365 76.686 103.365 77.7801C103.365 78.8433 102.997 79.7447 102.26 80.4843C101.539 81.2085 100.649 81.5706 99.5896 81.5706Z" fill="white"/>
<path d="M72.7166 108.613V105.886L83.2608 89.799L83.9514 89.0131L82.9845 89.1518H73.9598V84.7141H91.2726V87.4414L80.8204 103.436L80.1297 104.222L81.1427 104.083H91.3646V108.613H72.7166Z" fill="white"/>
<path d="M39.4871 108.613L51.5047 75.0065H57.951L69.9686 108.613H63.154L54.866 83.6047L54.4976 81.8943L54.0832 83.6971L50.1694 95.6698L49.6169 96.5943L50.3076 96.5019H53.807C54.6971 96.5019 55.4415 96.7561 56.0401 97.2646C56.654 97.7731 57.1452 98.3972 57.5135 99.1368C57.8972 99.8764 58.1965 100.585 58.4114 101.263H48.4197L45.9794 108.613H39.4871Z" fill="white"/>
</svg>
